<svg xmlns="http://www.w3.org/2000/svg" viewBox="0 0 450 60" width="450" height="60" role="img" fill="#FFFFFF"><title>UZIII2208</title><style>.w{animation:type 5s steps(75) infinite}@keyframes type{0%{clip-path:inset(0 100% 0 0)}70%,100%{clip-path:inset(0)}}.c{opacity:0;animation:move 5s steps(75) infinite,blink 0.9s step-end infinite}@keyframes move{0%{transform:translateX(0)}70%,100%{transform:translateX(450px)}}@keyframes blink{0%,50%{opacity:0.8}50.01%,100%{opacity:0}}@media(prefers-reduced-motion:reduce){.w{animation:none}.c{display:none}}</style><g class="w"><rect x="0" y="0" width="12" height="10.1"/><rect x="36" y="0" width="12" height="10.1"/><rect x="66" y="0" width="42" height="10.1"/><rect x="126" y="0" width="12" height="10.1"/><rect x="156" y="0" width="12" height="10.1"/><rect x="186" y="0" width="12" height="10.1"/><rect x="216" y="0" width="36" height="10.1"/><rect x="276" y="0" width="36" height="10.1"/><rect x="342" y="0" width="36" height="10.1"/><rect x="408" y="0" width="30" height="10.1"/><rect x="12" y="3.4" width="4.8" height="1.2"/><rect x="12" y="5.4" width="2.4" height="1.2"/><rect x="15.6" y="3.4" width="1.2" height="6.6"/><rect x="13.2" y="5.4" width="1.2" height="4.6"/><rect x="48" y="3.4" width="4.8" height="1.2"/><rect x="48" y="5.4" width="2.4" height="1.2"/><rect x="51.6" y="3.4" width="1.2" height="6.6"/><rect x="49.2" y="5.4" width="1.2" height="4.6"/><rect x="108" y="3.4" width="4.8" height="1.2"/><rect x="108" y="5.4" width="2.4" height="1.2"/><rect x="111.6" y="3.4" width="1.2" height="6.6"/><rect x="109.2" y="5.4" width="1.2" height="4.6"/><rect x="138" y="3.4" width="4.8" height="1.2"/><rect x="138" y="5.4" width="2.4" height="1.2"/><rect x="141.6" y="3.4" width="1.2" height="6.6"/><rect x="139.2" y="5.4" width="1.2" height="4.6"/><rect x="168" y="3.4" width="4.8" height="1.2"/><rect x="168" y="5.4" width="2.4" height="1.2"/><rect x="171.6" y="3.4" width="1.2" height="6.6"/><rect x="169.2" y="5.4" width="1.2" height="4.6"/><rect x="198" y="3.4" width="4.8" height="1.2"/><rect x="198" y="5.4" width="2.4" height="1.2"/><rect x="201.6" y="3.4" width="1.2" height="6.6"/><rect x="199.2" y="5.4" width="1.2" height="4.6"/><rect x="252" y="3.4" width="4.8" height="1.2"/><rect x="252" y="5.4" width="2.4" height="1.2"/><rect x="255.6" y="3.4" width="1.2" height="6.6"/><rect x="253.2" y="5.4" width="1.2" height="4.6"/><rect x="312" y="3.4" width="4.8" height="1.2"/><rect x="312" y="5.4" width="2.4" height="1.2"/><rect x="315.6" y="3.4" width="1.2" height="6.6"/><rect x="313.2" y="5.4" width="1.2" height="4.6"/><rect x="378" y="3.4" width="4.8" height="1.2"/><rect x="378" y="5.4" width="2.4" height="1.2"/><rect x="381.6" y="3.4" width="1.2" height="6.6"/><rect x="379.2" y="5.4" width="1.2" height="4.6"/><rect x="438" y="3.4" width="4.8" height="1.2"/><rect x="438" y="5.4" width="2.4" height="1.2"/><rect x="441.6" y="3.4" width="1.2" height="6.6"/><rect x="439.2" y="5.4" width="1.2" height="4.6"/><rect x="0" y="10" width="12" height="10.1"/><rect x="36" y="10" width="12" height="10.1"/><rect x="96" y="10" width="12" height="10.1"/><rect x="126" y="10" width="12" height="10.1"/><rect x="156" y="10" width="12" height="10.1"/><rect x="186" y="10" width="12" height="10.1"/><rect x="246" y="10" width="12" height="10.1"/><rect x="306" y="10" width="12" height="10.1"/><rect x="336" y="10" width="12" height="10.1"/><rect x="360" y="10" width="24" height="10.1"/><rect x="402" y="10" width="12" height="10.1"/><rect x="432" y="10" width="12" height="10.1"/><rect x="13.2" y="10" width="1.2" height="10"/><rect x="15.6" y="10" width="1.2" height="10"/><rect x="49.2" y="10" width="1.2" height="10"/><rect x="51.6" y="10" width="1.2" height="10"/><rect x="67.2" y="15.4" width="4.8" height="1.2"/><rect x="69.6" y="13.4" width="2.4" height="1.2"/><rect x="67.2" y="10" width="1.2" height="6.6"/><rect x="69.6" y="10" width="1.2" height="4.6"/><rect x="72" y="13.4" width="6" height="1.2"/><rect x="72" y="15.4" width="6" height="1.2"/><rect x="78" y="13.4" width="6" height="1.2"/><rect x="78" y="15.4" width="6" height="1.2"/><rect x="84" y="13.4" width="6" height="1.2"/><rect x="84" y="15.4" width="6" height="1.2"/><rect x="90" y="13.4" width="6" height="1.2"/><rect x="90" y="15.4" width="6" height="1.2"/><rect x="109.2" y="10" width="1.2" height="10"/><rect x="111.6" y="10" width="1.2" height="10"/><rect x="139.2" y="10" width="1.2" height="10"/><rect x="141.6" y="10" width="1.2" height="10"/><rect x="169.2" y="10" width="1.2" height="10"/><rect x="171.6" y="10" width="1.2" height="10"/><rect x="199.2" y="10" width="1.2" height="10"/><rect x="201.6" y="10" width="1.2" height="10"/><rect x="217.2" y="15.4" width="4.8" height="1.2"/><rect x="219.6" y="13.4" width="2.4" height="1.2"/><rect x="217.2" y="10" width="1.2" height="6.6"/><rect x="219.6" y="10" width="1.2" height="4.6"/><rect x="222" y="13.4" width="6" height="1.2"/><rect x="222" y="15.4" width="6" height="1.2"/><rect x="228" y="13.4" width="6" height="1.2"/><rect x="228" y="15.4" width="6" height="1.2"/><rect x="234" y="13.4" width="6" height="1.2"/><rect x="234" y="15.4" width="6" height="1.2"/><rect x="240" y="13.4" width="6" height="1.2"/><rect x="240" y="15.4" width="6" height="1.2"/><rect x="258" y="13.4" width="4.8" height="1.2"/><rect x="258" y="15.4" width="2.4" height="1.2"/><rect x="261.6" y="13.4" width="1.2" height="6.6"/><rect x="259.2" y="15.4" width="1.2" height="4.6"/><rect x="277.2" y="15.4" width="4.8" height="1.2"/><rect x="279.6" y="13.4" width="2.4" height="1.2"/><rect x="277.2" y="10" width="1.2" height="6.6"/><rect x="279.6" y="10" width="1.2" height="4.6"/><rect x="282" y="13.4" width="6" height="1.2"/><rect x="282" y="15.4" width="6" height="1.2"/><rect x="288" y="13.4" width="6" height="1.2"/><rect x="288" y="15.4" width="6" height="1.2"/><rect x="294" y="13.4" width="6" height="1.2"/><rect x="294" y="15.4" width="6" height="1.2"/><rect x="300" y="13.4" width="6" height="1.2"/><rect x="300" y="15.4" width="6" height="1.2"/><rect x="318" y="13.4" width="4.8" height="1.2"/><rect x="318" y="15.4" width="2.4" height="1.2"/><rect x="321.6" y="13.4" width="1.2" height="6.6"/><rect x="319.2" y="15.4" width="1.2" height="4.6"/><rect x="349.2" y="13.4" width="4.8" height="1.2"/><rect x="351.6" y="15.4" width="2.4" height="1.2"/><rect x="349.2" y="13.4" width="1.2" height="6.6"/><rect x="351.6" y="15.4" width="1.2" height="4.6"/><rect x="354" y="13.4" width="6" height="1.2"/><rect x="354" y="15.4" width="6" height="1.2"/><rect x="384" y="13.4" width="4.8" height="1.2"/><rect x="384" y="15.4" width="2.4" height="1.2"/><rect x="387.6" y="13.4" width="1.2" height="6.6"/><rect x="385.2" y="15.4" width="1.2" height="4.6"/><rect x="415.2" y="13.4" width="4.8" height="1.2"/><rect x="417.6" y="15.4" width="2.4" height="1.2"/><rect x="415.2" y="13.4" width="1.2" height="6.6"/><rect x="417.6" y="15.4" width="1.2" height="4.6"/><rect x="420" y="13.4" width="6" height="1.2"/><rect x="420" y="15.4" width="6" height="1.2"/><rect x="426" y="13.4" width="6" height="1.2"/><rect x="426" y="15.4" width="6" height="1.2"/><rect x="444" y="13.4" width="4.8" height="1.2"/><rect x="444" y="15.4" width="2.4" height="1.2"/><rect x="447.6" y="13.4" width="1.2" height="6.6"/><rect x="445.2" y="15.4" width="1.2" height="4.6"/><rect x="0" y="20" width="12" height="10.1"/><rect x="36" y="20" width="12" height="10.1"/><rect x="90" y="20" width="12" height="10.1"/><rect x="126" y="20" width="12" height="10.1"/><rect x="156" y="20" width="12" height="10.1"/><rect x="186" y="20" width="12" height="10.1"/><rect x="222" y="20" width="30" height="10.1"/><rect x="282" y="20" width="30" height="10.1"/><rect x="336" y="20" width="12" height="10.1"/><rect x="354" y="20" width="12" height="10.1"/><rect x="372" y="20" width="12" height="10.1"/><rect x="408" y="20" width="30" height="10.1"/><rect x="13.2" y="20" width="1.2" height="10"/><rect x="15.6" y="20" width="1.2" height="10"/><rect x="49.2" y="20" width="1.2" height="10"/><rect x="51.6" y="20" width="1.2" height="10"/><rect x="103.2" y="23.4" width="4.8" height="1.2"/><rect x="105.6" y="25.4" width="2.4" height="1.2"/><rect x="103.2" y="23.4" width="1.2" height="6.6"/><rect x="105.6" y="25.4" width="1.2" height="4.6"/><rect x="108" y="25.4" width="4.8" height="1.2"/><rect x="108" y="23.4" width="2.4" height="1.2"/><rect x="111.6" y="20" width="1.2" height="6.6"/><rect x="109.2" y="20" width="1.2" height="4.6"/><rect x="139.2" y="20" width="1.2" height="10"/><rect x="141.6" y="20" width="1.2" height="10"/><rect x="169.2" y="20" width="1.2" height="10"/><rect x="171.6" y="20" width="1.2" height="10"/><rect x="199.2" y="20" width="1.2" height="10"/><rect x="201.6" y="20" width="1.2" height="10"/><rect x="253.2" y="23.4" width="4.8" height="1.2"/><rect x="255.6" y="25.4" width="2.4" height="1.2"/><rect x="253.2" y="23.4" width="1.2" height="6.6"/><rect x="255.6" y="25.4" width="1.2" height="4.6"/><rect x="258" y="25.4" width="4.8" height="1.2"/><rect x="258" y="23.4" width="2.4" height="1.2"/><rect x="261.6" y="20" width="1.2" height="6.6"/><rect x="259.2" y="20" width="1.2" height="4.6"/><rect x="313.2" y="23.4" width="4.8" height="1.2"/><rect x="315.6" y="25.4" width="2.4" height="1.2"/><rect x="313.2" y="23.4" width="1.2" height="6.6"/><rect x="315.6" y="25.4" width="1.2" height="4.6"/><rect x="318" y="25.4" width="4.8" height="1.2"/><rect x="318" y="23.4" width="2.4" height="1.2"/><rect x="321.6" y="20" width="1.2" height="6.6"/><rect x="319.2" y="20" width="1.2" height="4.6"/><rect x="349.2" y="20" width="1.2" height="10"/><rect x="351.6" y="20" width="1.2" height="10"/><rect x="367.2" y="23.4" width="4.8" height="1.2"/><rect x="369.6" y="25.4" width="2.4" height="1.2"/><rect x="367.2" y="23.4" width="1.2" height="6.6"/><rect x="369.6" y="25.4" width="1.2" height="4.6"/><rect x="385.2" y="20" width="1.2" height="10"/><rect x="387.6" y="20" width="1.2" height="10"/><rect x="403.2" y="25.4" width="4.8" height="1.2"/><rect x="405.6" y="23.4" width="2.4" height="1.2"/><rect x="403.2" y="20" width="1.2" height="6.6"/><rect x="405.6" y="20" width="1.2" height="4.6"/><rect x="439.2" y="23.4" width="4.8" height="1.2"/><rect x="441.6" y="25.4" width="2.4" height="1.2"/><rect x="439.2" y="23.4" width="1.2" height="6.6"/><rect x="441.6" y="25.4" width="1.2" height="4.6"/><rect x="444" y="25.4" width="4.8" height="1.2"/><rect x="444" y="23.4" width="2.4" height="1.2"/><rect x="447.6" y="20" width="1.2" height="6.6"/><rect x="445.2" y="20" width="1.2" height="4.6"/><rect x="0" y="30" width="12" height="10.1"/><rect x="36" y="30" width="12" height="10.1"/><rect x="84" y="30" width="12" height="10.1"/><rect x="126" y="30" width="12" height="10.1"/><rect x="156" y="30" width="12" height="10.1"/><rect x="186" y="30" width="12" height="10.1"/><rect x="216" y="30" width="12" height="10.1"/><rect x="276" y="30" width="12" height="10.1"/><rect x="336" y="30" width="24" height="10.1"/><rect x="372" y="30" width="12" height="10.1"/><rect x="402" y="30" width="12" height="10.1"/><rect x="432" y="30" width="12" height="10.1"/><rect x="13.2" y="30" width="1.2" height="10"/><rect x="15.6" y="30" width="1.2" height="10"/><rect x="49.2" y="30" width="1.2" height="10"/><rect x="51.6" y="30" width="1.2" height="10"/><rect x="97.2" y="33.4" width="4.8" height="1.2"/><rect x="99.6" y="35.4" width="2.4" height="1.2"/><rect x="97.2" y="33.4" width="1.2" height="6.6"/><rect x="99.6" y="35.4" width="1.2" height="4.6"/><rect x="102" y="35.4" width="4.8" height="1.2"/><rect x="102" y="33.4" width="2.4" height="1.2"/><rect x="105.6" y="30" width="1.2" height="6.6"/><rect x="103.2" y="30" width="1.2" height="4.6"/><rect x="139.2" y="30" width="1.2" height="10"/><rect x="141.6" y="30" width="1.2" height="10"/><rect x="169.2" y="30" width="1.2" height="10"/><rect x="171.6" y="30" width="1.2" height="10"/><rect x="199.2" y="30" width="1.2" height="10"/><rect x="201.6" y="30" width="1.2" height="10"/><rect x="229.2" y="33.4" width="4.8" height="1.2"/><rect x="231.6" y="35.4" width="2.4" height="1.2"/><rect x="229.2" y="33.4" width="1.2" height="6.6"/><rect x="231.6" y="35.4" width="1.2" height="4.6"/><rect x="234" y="33.4" width="6" height="1.2"/><rect x="234" y="35.4" width="6" height="1.2"/><rect x="240" y="33.4" width="6" height="1.2"/><rect x="240" y="35.4" width="6" height="1.2"/><rect x="246" y="33.4" width="6" height="1.2"/><rect x="246" y="35.4" width="6" height="1.2"/><rect x="252" y="35.4" width="4.8" height="1.2"/><rect x="252" y="33.4" width="2.4" height="1.2"/><rect x="255.6" y="30" width="1.2" height="6.6"/><rect x="253.2" y="30" width="1.2" height="4.6"/><rect x="289.2" y="33.4" width="4.8" height="1.2"/><rect x="291.6" y="35.4" width="2.4" height="1.2"/><rect x="289.2" y="33.4" width="1.2" height="6.6"/><rect x="291.6" y="35.4" width="1.2" height="4.6"/><rect x="294" y="33.4" width="6" height="1.2"/><rect x="294" y="35.4" width="6" height="1.2"/><rect x="300" y="33.4" width="6" height="1.2"/><rect x="300" y="35.4" width="6" height="1.2"/><rect x="306" y="33.4" width="6" height="1.2"/><rect x="306" y="35.4" width="6" height="1.2"/><rect x="312" y="35.4" width="4.8" height="1.2"/><rect x="312" y="33.4" width="2.4" height="1.2"/><rect x="315.6" y="30" width="1.2" height="6.6"/><rect x="313.2" y="30" width="1.2" height="4.6"/><rect x="361.2" y="33.4" width="4.8" height="1.2"/><rect x="363.6" y="35.4" width="2.4" height="1.2"/><rect x="361.2" y="33.4" width="1.2" height="6.6"/><rect x="363.6" y="35.4" width="1.2" height="4.6"/><rect x="366" y="35.4" width="4.8" height="1.2"/><rect x="366" y="33.4" width="2.4" height="1.2"/><rect x="369.6" y="30" width="1.2" height="6.6"/><rect x="367.2" y="30" width="1.2" height="4.6"/><rect x="385.2" y="30" width="1.2" height="10"/><rect x="387.6" y="30" width="1.2" height="10"/><rect x="415.2" y="33.4" width="4.8" height="1.2"/><rect x="417.6" y="35.4" width="2.4" height="1.2"/><rect x="415.2" y="33.4" width="1.2" height="6.6"/><rect x="417.6" y="35.4" width="1.2" height="4.6"/><rect x="420" y="33.4" width="6" height="1.2"/><rect x="420" y="35.4" width="6" height="1.2"/><rect x="426" y="33.4" width="6" height="1.2"/><rect x="426" y="35.4" width="6" height="1.2"/><rect x="444" y="33.4" width="4.8" height="1.2"/><rect x="444" y="35.4" width="2.4" height="1.2"/><rect x="447.6" y="33.4" width="1.2" height="6.6"/><rect x="445.2" y="35.4" width="1.2" height="4.6"/><rect x="6" y="40" width="36" height="10.1"/><rect x="84" y="40" width="12" height="10.1"/><rect x="126" y="40" width="12" height="10.1"/><rect x="156" y="40" width="12" height="10.1"/><rect x="186" y="40" width="12" height="10.1"/><rect x="216" y="40" width="42" height="10.1"/><rect x="276" y="40" width="42" height="10.1"/><rect x="342" y="40" width="36" height="10.1"/><rect x="408" y="40" width="30" height="10.1"/><rect x="1.2" y="45.4" width="4.8" height="1.2"/><rect x="3.6" y="43.4" width="2.4" height="1.2"/><rect x="1.2" y="40" width="1.2" height="6.6"/><rect x="3.6" y="40" width="1.2" height="4.6"/><rect x="43.2" y="43.4" width="4.8" height="1.2"/><rect x="45.6" y="45.4" width="2.4" height="1.2"/><rect x="43.2" y="43.4" width="1.2" height="6.6"/><rect x="45.6" y="45.4" width="1.2" height="4.6"/><rect x="48" y="45.4" width="4.8" height="1.2"/><rect x="48" y="43.4" width="2.4" height="1.2"/><rect x="51.6" y="40" width="1.2" height="6.6"/><rect x="49.2" y="40" width="1.2" height="4.6"/><rect x="97.2" y="40" width="1.2" height="10"/><rect x="99.6" y="40" width="1.2" height="10"/><rect x="139.2" y="40" width="1.2" height="10"/><rect x="141.6" y="40" width="1.2" height="10"/><rect x="169.2" y="40" width="1.2" height="10"/><rect x="171.6" y="40" width="1.2" height="10"/><rect x="199.2" y="40" width="1.2" height="10"/><rect x="201.6" y="40" width="1.2" height="10"/><rect x="258" y="43.4" width="4.8" height="1.2"/><rect x="258" y="45.4" width="2.4" height="1.2"/><rect x="261.6" y="43.4" width="1.2" height="6.6"/><rect x="259.2" y="45.4" width="1.2" height="4.6"/><rect x="318" y="43.4" width="4.8" height="1.2"/><rect x="318" y="45.4" width="2.4" height="1.2"/><rect x="321.6" y="43.4" width="1.2" height="6.6"/><rect x="319.2" y="45.4" width="1.2" height="4.6"/><rect x="337.2" y="45.4" width="4.8" height="1.2"/><rect x="339.6" y="43.4" width="2.4" height="1.2"/><rect x="337.2" y="40" width="1.2" height="6.6"/><rect x="339.6" y="40" width="1.2" height="4.6"/><rect x="379.2" y="43.4" width="4.8" height="1.2"/><rect x="381.6" y="45.4" width="2.4" height="1.2"/><rect x="379.2" y="43.4" width="1.2" height="6.6"/><rect x="381.6" y="45.4" width="1.2" height="4.6"/><rect x="384" y="45.4" width="4.8" height="1.2"/><rect x="384" y="43.4" width="2.4" height="1.2"/><rect x="387.6" y="40" width="1.2" height="6.6"/><rect x="385.2" y="40" width="1.2" height="4.6"/><rect x="403.2" y="45.4" width="4.8" height="1.2"/><rect x="405.6" y="43.4" width="2.4" height="1.2"/><rect x="403.2" y="40" width="1.2" height="6.6"/><rect x="405.6" y="40" width="1.2" height="4.6"/><rect x="439.2" y="43.4" width="4.8" height="1.2"/><rect x="441.6" y="45.4" width="2.4" height="1.2"/><rect x="439.2" y="43.4" width="1.2" height="6.6"/><rect x="441.6" y="45.4" width="1.2" height="4.6"/><rect x="444" y="45.4" width="4.8" height="1.2"/><rect x="444" y="43.4" width="2.4" height="1.2"/><rect x="447.6" y="40" width="1.2" height="6.6"/><rect x="445.2" y="40" width="1.2" height="4.6"/><rect x="7.2" y="55.4" width="4.8" height="1.2"/><rect x="9.6" y="53.4" width="2.4" height="1.2"/><rect x="7.2" y="50" width="1.2" height="6.6"/><rect x="9.6" y="50" width="1.2" height="4.6"/><rect x="12" y="53.4" width="6" height="1.2"/><rect x="12" y="55.4" width="6" height="1.2"/><rect x="18" y="53.4" width="6" height="1.2"/><rect x="18" y="55.4" width="6" height="1.2"/><rect x="24" y="53.4" width="6" height="1.2"/><rect x="24" y="55.4" width="6" height="1.2"/><rect x="30" y="53.4" width="6" height="1.2"/><rect x="30" y="55.4" width="6" height="1.2"/><rect x="36" y="53.4" width="6" height="1.2"/><rect x="36" y="55.4" width="6" height="1.2"/><rect x="42" y="55.4" width="4.8" height="1.2"/><rect x="42" y="53.4" width="2.4" height="1.2"/><rect x="45.6" y="50" width="1.2" height="6.6"/><rect x="43.2" y="50" width="1.2" height="4.6"/><rect x="85.2" y="55.4" width="4.8" height="1.2"/><rect x="87.6" y="53.4" width="2.4" height="1.2"/><rect x="85.2" y="50" width="1.2" height="6.6"/><rect x="87.6" y="50" width="1.2" height="4.6"/><rect x="90" y="53.4" width="6" height="1.2"/><rect x="90" y="55.4" width="6" height="1.2"/><rect x="96" y="55.4" width="4.8" height="1.2"/><rect x="96" y="53.4" width="2.4" height="1.2"/><rect x="99.6" y="50" width="1.2" height="6.6"/><rect x="97.2" y="50" width="1.2" height="4.6"/><rect x="127.2" y="55.4" width="4.8" height="1.2"/><rect x="129.6" y="53.4" width="2.4" height="1.2"/><rect x="127.2" y="50" width="1.2" height="6.6"/><rect x="129.6" y="50" width="1.2" height="4.6"/><rect x="132" y="53.4" width="6" height="1.2"/><rect x="132" y="55.4" width="6" height="1.2"/><rect x="138" y="55.4" width="4.8" height="1.2"/><rect x="138" y="53.4" width="2.4" height="1.2"/><rect x="141.6" y="50" width="1.2" height="6.6"/><rect x="139.2" y="50" width="1.2" height="4.6"/><rect x="157.2" y="55.4" width="4.8" height="1.2"/><rect x="159.6" y="53.4" width="2.4" height="1.2"/><rect x="157.2" y="50" width="1.2" height="6.6"/><rect x="159.6" y="50" width="1.2" height="4.6"/><rect x="162" y="53.4" width="6" height="1.2"/><rect x="162" y="55.4" width="6" height="1.2"/><rect x="168" y="55.4" width="4.8" height="1.2"/><rect x="168" y="53.4" width="2.4" height="1.2"/><rect x="171.6" y="50" width="1.2" height="6.6"/><rect x="169.2" y="50" width="1.2" height="4.6"/><rect x="187.2" y="55.4" width="4.8" height="1.2"/><rect x="189.6" y="53.4" width="2.4" height="1.2"/><rect x="187.2" y="50" width="1.2" height="6.6"/><rect x="189.6" y="50" width="1.2" height="4.6"/><rect x="192" y="53.4" width="6" height="1.2"/><rect x="192" y="55.4" width="6" height="1.2"/><rect x="198" y="55.4" width="4.8" height="1.2"/><rect x="198" y="53.4" width="2.4" height="1.2"/><rect x="201.6" y="50" width="1.2" height="6.6"/><rect x="199.2" y="50" width="1.2" height="4.6"/><rect x="217.2" y="55.4" width="4.8" height="1.2"/><rect x="219.6" y="53.4" width="2.4" height="1.2"/><rect x="217.2" y="50" width="1.2" height="6.6"/><rect x="219.6" y="50" width="1.2" height="4.6"/><rect x="222" y="53.4" width="6" height="1.2"/><rect x="222" y="55.4" width="6" height="1.2"/><rect x="228" y="53.4" width="6" height="1.2"/><rect x="228" y="55.4" width="6" height="1.2"/><rect x="234" y="53.4" width="6" height="1.2"/><rect x="234" y="55.4" width="6" height="1.2"/><rect x="240" y="53.4" width="6" height="1.2"/><rect x="240" y="55.4" width="6" height="1.2"/><rect x="246" y="53.4" width="6" height="1.2"/><rect x="246" y="55.4" width="6" height="1.2"/><rect x="252" y="53.4" width="6" height="1.2"/><rect x="252" y="55.4" width="6" height="1.2"/><rect x="258" y="55.4" width="4.8" height="1.2"/><rect x="258" y="53.4" width="2.4" height="1.2"/><rect x="261.6" y="50" width="1.2" height="6.6"/><rect x="259.2" y="50" width="1.2" height="4.6"/><rect x="277.2" y="55.4" width="4.8" height="1.2"/><rect x="279.6" y="53.4" width="2.4" height="1.2"/><rect x="277.2" y="50" width="1.2" height="6.6"/><rect x="279.6" y="50" width="1.2" height="4.6"/><rect x="282" y="53.4" width="6" height="1.2"/><rect x="282" y="55.4" width="6" height="1.2"/><rect x="288" y="53.4" width="6" height="1.2"/><rect x="288" y="55.4" width="6" height="1.2"/><rect x="294" y="53.4" width="6" height="1.2"/><rect x="294" y="55.4" width="6" height="1.2"/><rect x="300" y="53.4" width="6" height="1.2"/><rect x="300" y="55.4" width="6" height="1.2"/><rect x="306" y="53.4" width="6" height="1.2"/><rect x="306" y="55.4" width="6" height="1.2"/><rect x="312" y="53.4" width="6" height="1.2"/><rect x="312" y="55.4" width="6" height="1.2"/><rect x="318" y="55.4" width="4.8" height="1.2"/><rect x="318" y="53.4" width="2.4" height="1.2"/><rect x="321.6" y="50" width="1.2" height="6.6"/><rect x="319.2" y="50" width="1.2" height="4.6"/><rect x="343.2" y="55.4" width="4.8" height="1.2"/><rect x="345.6" y="53.4" width="2.4" height="1.2"/><rect x="343.2" y="50" width="1.2" height="6.6"/><rect x="345.6" y="50" width="1.2" height="4.6"/><rect x="348" y="53.4" width="6" height="1.2"/><rect x="348" y="55.4" width="6" height="1.2"/><rect x="354" y="53.4" width="6" height="1.2"/><rect x="354" y="55.4" width="6" height="1.2"/><rect x="360" y="53.4" width="6" height="1.2"/><rect x="360" y="55.4" width="6" height="1.2"/><rect x="366" y="53.4" width="6" height="1.2"/><rect x="366" y="55.4" width="6" height="1.2"/><rect x="372" y="53.4" width="6" height="1.2"/><rect x="372" y="55.4" width="6" height="1.2"/><rect x="378" y="55.4" width="4.8" height="1.2"/><rect x="378" y="53.4" width="2.4" height="1.2"/><rect x="381.6" y="50" width="1.2" height="6.6"/><rect x="379.2" y="50" width="1.2" height="4.6"/><rect x="409.2" y="55.4" width="4.8" height="1.2"/><rect x="411.6" y="53.4" width="2.4" height="1.2"/><rect x="409.2" y="50" width="1.2" height="6.6"/><rect x="411.6" y="50" width="1.2" height="4.6"/><rect x="414" y="53.4" width="6" height="1.2"/><rect x="414" y="55.4" width="6" height="1.2"/><rect x="420" y="53.4" width="6" height="1.2"/><rect x="420" y="55.4" width="6" height="1.2"/><rect x="426" y="53.4" width="6" height="1.2"/><rect x="426" y="55.4" width="6" height="1.2"/><rect x="432" y="53.4" width="6" height="1.2"/><rect x="432" y="55.4" width="6" height="1.2"/><rect x="438" y="55.4" width="4.8" height="1.2"/><rect x="438" y="53.4" width="2.4" height="1.2"/><rect x="441.6" y="50" width="1.2" height="6.6"/><rect x="439.2" y="50" width="1.2" height="4.6"/></g><rect class="c" x="0" y="0" width="6" height="60"/></svg>